<?xml version="1.0" standalone="no"?>
<!DOCTYPE svg PUBLIC "-//W3C//DTD SVG 20010904//EN"
 "http://www.w3.org/TR/2001/REC-SVG-20010904/DTD/svg10.dtd">
<svg version="1.0" xmlns="http://www.w3.org/2000/svg"
 width="736.000000pt" height="736.000000pt" viewBox="0 0 736.000000 736.000000"
 preserveAspectRatio="xMidYMid meet">

<g transform="translate(0.000000,736.000000) scale(0.100000,-0.100000)"
fill="#000000" stroke="none">
<path d="M3676 5219 c-3 -24 -10 -152 -16 -284 -6 -132 -13 -288 -16 -346 l-7
-106 -60 -11 c-128 -24 -235 -105 -297 -224 l-33 -64 -61 8 c-246 33 -550 67
-554 63 -14 -13 23 -24 153 -45 77 -12 208 -34 290 -49 l150 -26 1 -72 c2 -62
-1 -73 -15 -73 -28 0 -419 38 -871 84 -239 25 -505 52 -590 60 -85 9 -216 23
-290 31 -135 15 -324 32 -880 80 -162 14 -305 27 -316 30 -24 5 -30 22 -40
109 -4 36 -12 60 -21 63 -25 10 -30 -11 -22 -91 10 -102 26 -121 118 -135 36
-6 183 -23 326 -37 287 -28 857 -91 893 -99 17 -4 22 -12 22 -35 0 -42 34 -42
48 0 9 25 15 29 39 25 15 -3 111 -16 213 -30 269 -37 250 -33 250 -65 0 -32
23 -55 45 -46 8 3 15 17 15 32 l0 27 72 -7 c39 -3 82 -9 95 -12 l24 -7 -25
-26 c-94 -98 -87 -280 15 -379 60 -59 104 -77 194 -77 70 0 87 4 133 29 114
64 167 183 139 317 l-7 37 62 -13 c35 -7 79 -16 99 -19 l37 -6 4 -106 c2 -72
8 -108 17 -113 7 -5 11 -19 9 -32 -3 -22 -7 -24 -45 -21 l-43 4 0 -71 0 -71
30 0 c16 0 33 6 37 14 15 26 59 30 82 7 12 -12 32 -21 45 -21 21 0 24 6 30 54
8 75 2 88 -43 84 -34 -3 -36 -1 -39 28 -3 28 5 39 62 89 96 85 115 95 147 79
15 -7 29 -20 33 -29 11 -29 86 -55 159 -55 63 0 67 -1 67 -22 0 -14 3 -18 8
-12 10 16 49 26 57 15 3 -6 7 -37 8 -71 2 -54 1 -59 -16 -54 -31 10 -47 -14
-47 -71 0 -39 4 -54 16 -59 26 -10 34 -7 46 19 6 14 14 25 18 25 4 0 12 -11
18 -25 24 -51 72 -21 72 45 0 48 -17 73 -46 66 -27 -7 -29 -4 -12 24 9 15 9
24 -1 43 -10 19 -10 30 -2 46 13 24 16 25 41 11 14 -7 20 -6 24 6 4 12 15 15
37 12 17 -3 67 -2 111 2 69 6 83 11 111 37 41 40 74 56 91 46 7 -4 48 -39 90
-77 74 -68 76 -71 76 -115 -1 -40 -2 -44 -14 -28 -7 9 -25 17 -40 17 -26 0
-26 -1 -26 -70 0 -69 0 -70 26 -70 15 0 32 7 39 16 17 23 62 20 90 -6 13 -12
31 -20 42 -18 15 3 18 13 18 73 0 65 -2 70 -23 73 -13 2 -25 -3 -28 -12 -3 -9
-10 -16 -15 -16 -12 0 -12 77 0 82 6 2 13 49 17 106 8 114 0 104 94 117 25 3
59 8 76 11 l31 6 -10 -49 c-36 -177 119 -348 299 -330 176 18 291 191 240 360
-7 25 -23 59 -35 75 -11 17 -21 32 -21 35 0 3 145 19 170 19 3 0 9 -14 14 -31
12 -40 43 -42 52 -3 3 15 7 32 9 38 2 6 80 18 192 28 103 9 212 20 241 23 41
5 52 3 52 -9 0 -8 6 -23 14 -33 12 -16 16 -17 30 -6 9 7 16 23 16 35 0 22 6
23 188 39 103 9 333 26 512 37 605 37 611 38 638 81 16 26 33 161 22 173 -20
20 -37 -5 -47 -74 -6 -40 -16 -77 -22 -83 -5 -5 -85 -13 -178 -18 -92 -4 -307
-15 -478 -23 -418 -21 -943 -52 -1265 -76 -295 -22 -623 -45 -865 -60 -88 -6
-176 -13 -195 -15 l-35 -4 0 70 c0 62 2 70 20 75 11 2 163 24 338 48 175 24
321 47 324 50 18 18 -34 16 -334 -13 -180 -17 -336 -31 -346 -31 -12 0 -25 16
-38 47 -48 113 -143 201 -259 240 l-65 22 -3 383 c-1 212 -6 386 -11 391 -6 6
-12 -8 -15 -34z m132 -834 c68 -37 136 -111 170 -183 22 -47 27 -71 27 -142 0
-74 -3 -91 -27 -131 -92 -156 -283 -226 -455 -166 -142 49 -217 128 -235 244
-18 123 29 245 129 333 71 62 130 81 243 77 83 -2 102 -6 148 -32z m-1273
-412 c-4 -10 -16 -45 -25 -78 -19 -64 -22 -62 -34 32 -6 44 7 62 48 63 13 0
16 -4 11 -17z m69 -3 l26 -10 -47 -59 c-38 -48 -49 -56 -51 -40 -4 24 26 119
38 119 5 0 20 -4 34 -10z m-154 -38 c0 -20 4 -52 9 -70 5 -17 8 -32 6 -32 -3
0 -20 24 -40 53 l-35 52 21 18 c31 25 39 21 39 -21z m2388 4 c4 -34 -7 -120
-14 -113 -3 3 -11 29 -18 59 -8 29 -17 61 -21 71 -7 16 -4 18 21 15 24 -2 30
-8 32 -32z m-64 -31 c28 -88 17 -96 -36 -26 -27 33 -48 63 -48 65 0 5 28 13
51 15 11 1 22 -16 33 -54z m132 31 c18 -14 18 -16 1 -48 -10 -18 -27 -44 -38
-58 -17 -21 -20 -22 -15 -5 2 11 8 44 11 73 7 56 11 60 41 38z m-2218 -19 l22
-24 -70 -35 c-38 -19 -70 -32 -70 -28 0 16 77 110 90 110 4 0 16 -11 28 -23z
m-271 -73 c20 -26 28 -44 20 -44 -17 0 -107 57 -107 68 0 4 8 18 17 32 16 22
17 23 27 5 6 -10 26 -37 43 -61z m2275 49 c32 -35 63 -83 53 -83 -23 0 -134
64 -128 74 25 44 40 46 75 9z m282 -18 c9 -13 16 -27 16 -29 0 -7 -102 -66
-113 -66 -4 0 8 23 28 51 19 28 35 55 35 60 0 17 18 9 34 -16z m-2234 -41 c6
-14 10 -34 10 -44 0 -16 -4 -17 -32 -9 -18 5 -52 9 -75 9 -23 0 -44 4 -47 8
-6 11 91 62 116 62 11 0 23 -11 28 -26z m1946 -25 c19 -11 34 -23 32 -25 -2
-1 -30 -7 -63 -13 -33 -5 -67 -11 -75 -13 -16 -3 -16 25 0 68 8 20 13 22 40
14 17 -5 47 -19 66 -31z m-2283 -21 c45 -17 31 -28 -38 -28 -70 0 -73 3 -59
58 l6 22 32 -20 c17 -12 43 -26 59 -32z m2611 0 c4 -21 2 -34 -6 -40 -18 -11
-100 -10 -118 2 -13 9 -13 10 0 10 9 0 36 13 60 29 25 16 48 30 51 30 4 1 9
-13 13 -31z m-1868 11 c47 -12 53 -19 30 -38 -11 -9 -24 -7 -60 11 -73 35 -58
49 30 27z m1104 -9 c0 -6 -20 -20 -44 -32 -37 -18 -47 -19 -60 -8 -25 20 -19
27 32 38 65 13 72 14 72 2z m-1520 -40 c18 -10 21 -18 16 -43 -3 -17 -8 -32
-10 -34 -2 -3 -25 11 -50 31 -25 19 -55 37 -66 41 -11 3 -20 11 -20 17 0 14
99 4 130 -12z m385 -2 c30 -14 31 -18 4 -52 -29 -37 -39 -32 -39 19 0 50 -1
49 35 33z m1590 -14 c-11 -8 -44 -30 -73 -49 l-53 -34 -6 29 c-3 16 -6 33 -7
37 -2 13 66 32 114 32 42 0 44 -1 25 -15z m-2261 -3 c6 -8 -23 -24 -87 -47
-37 -13 -38 -13 -47 12 -6 14 -10 30 -10 35 0 11 137 12 144 0z m1796 -36 c0
-25 -3 -45 -7 -44 -5 0 -19 14 -32 31 -24 30 -24 31 -6 44 34 25 45 17 45 -31z
m-1607 9 c18 -9 44 -28 59 -42 l28 -26 -22 -23 c-27 -29 -32 -29 -47 4 -7 15
-26 44 -42 65 -33 41 -26 47 24 22z m2378 -11 c-4 -16 -15 -29 -23 -31 -20 -4
-118 37 -118 49 0 5 33 9 74 9 l74 0 -7 -27z m-322 -57 l-43 -66 -25 25 c-25
24 -25 24 -5 46 19 21 106 70 113 64 1 -2 -16 -33 -40 -69z m-2246 34 c-10
-17 -30 -42 -44 -56 l-26 -25 -23 28 -22 28 34 13 c18 7 47 19 63 27 17 7 31
14 33 14 2 1 -5 -13 -15 -29z m57 5 c0 -23 -20 -109 -29 -123 -7 -12 -14 -11
-39 2 l-32 16 43 60 c43 60 57 71 57 45z m128 -64 c23 -41 20 -52 -24 -65 -19
-6 -22 -2 -27 46 -4 29 -9 64 -13 78 l-7 25 25 -23 c13 -12 34 -40 46 -61z
m-79 4 c7 -36 9 -70 6 -75 -5 -8 -65 -15 -65 -7 0 1 7 20 15 42 8 22 14 55 15
73 0 54 17 36 29 -33z m2202 24 c-6 -18 -11 -49 -11 -69 0 -46 -5 -51 -41 -38
-33 11 -36 23 -12 58 61 93 86 111 64 49z m222 -3 c17 -5 16 -8 -4 -36 -13
-16 -25 -30 -28 -30 -7 1 -81 96 -81 104 0 2 21 -3 48 -14 26 -10 55 -21 65
-24z m-95 -27 l42 -60 -32 -14 c-31 -13 -34 -12 -46 11 -16 30 -28 124 -16
123 5 0 28 -27 52 -60z m-74 -17 c21 -83 21 -84 -11 -80 -26 3 -28 6 -27 48 0
45 12 106 18 99 2 -2 11 -32 20 -67z"/>
<path d="M3391 4234 c-39 -50 -40 -104 -3 -104 11 0 36 7 55 15 27 11 77 15
199 15 146 0 166 -2 193 -20 35 -23 83 -26 91 -5 7 17 -11 72 -31 99 -14 18
-32 20 -249 23 l-234 3 -21 -26z"/>
<path d="M3584 3893 c-61 -66 -40 -98 64 -97 44 1 62 14 62 44 0 18 -64 90
-81 90 -6 0 -27 -17 -45 -37z"/>
</g>
</svg>
